<svg version="1.1" id="Layer_1" xmlns="http://www.w3.org/2000/svg" xmlns:xlink="http://www.w3.org/1999/xlink" x="0px" y="0px"
	 width="100%" viewBox="0 0 3571 3571" enable-background="new 0 0 3571 3571" xml:space="preserve">
<path fill="#FFFFFF" opacity="1.000000" stroke="none" 
	d="
M1670.000000,3574.000000 
	C1113.333374,3574.000000 557.666687,3574.000000 2.000000,3574.000000 
	C2.000000,2383.333252 2.000000,1192.666626 2.000000,2.000000 
	C1192.666626,2.000000 2383.333252,2.000000 3574.000000,2.000000 
	C3574.000000,1192.666626 3574.000000,2383.333252 3574.000000,3574.000000 
	C2939.666748,3574.000000 2305.333252,3574.000000 1670.000000,3574.000000 
z"/>
<path fill="#101010" opacity="1.000000" stroke="none" 
	d="
M2717.645020,2145.370361 
	C2745.483398,2173.775879 2777.306641,2196.120605 2811.071777,2215.814941 
	C2852.318115,2239.872803 2896.035645,2258.458008 2941.136719,2273.918457 
	C2944.593262,2275.103516 2948.032227,2276.341064 2951.463623,2277.597900 
	C2952.074707,2277.821777 2952.607666,2278.258789 2953.289551,2278.664551 
	C2952.751953,2282.041748 2950.282227,2284.364014 2948.494385,2287.015381 
	C2926.521240,2319.604004 2904.499268,2352.159424 2882.469482,2384.709961 
	C2877.634766,2391.853760 2877.602539,2391.815674 2869.300781,2388.280762 
	C2813.154541,2364.373047 2758.847168,2336.999512 2708.295654,2302.592529 
	C2664.733887,2272.942871 2625.941162,2238.157715 2594.168457,2195.891846 
	C2588.317871,2188.109131 2587.441895,2189.933105 2594.770508,2182.353271 
	C2618.398193,2157.916016 2642.060303,2133.512207 2665.987793,2108.807617 
	C2664.038086,2104.970947 2660.273926,2103.334473 2657.193604,2101.107910 
	C2619.034180,2073.525635 2582.944580,2043.505615 2550.059570,2009.763428 
	C2514.268555,1973.039551 2483.231445,1932.896973 2461.561035,1886.015747 
	C2441.744141,1843.144409 2432.348633,1798.275513 2436.173584,1751.111694 
	C2439.179443,1714.050659 2451.408447,1679.697144 2469.503906,1647.348022 
	C2495.193115,1601.423706 2529.849365,1562.911865 2568.628174,1527.882812 
	C2627.781494,1474.449585 2693.888428,1430.877930 2763.260010,1392.119385 
	C2844.634033,1346.655151 2930.106445,1311.051025 3020.368652,1287.335083 
	C3036.126709,1283.194702 3052.019531,1279.543945 3067.926514,1276.011108 
	C3072.571533,1274.979614 3074.661621,1273.380371 3074.520508,1268.156494 
	C3074.133301,1253.833740 3074.159180,1239.488281 3074.505615,1225.163452 
	C3074.631592,1219.958618 3072.515625,1218.783813 3068.035645,1219.263794 
	C3066.058350,1219.475464 3064.039551,1219.297363 3062.039551,1219.297363 
	C2781.708496,1219.297241 2501.377686,1219.288574 2221.046631,1219.321045 
	C2205.908936,1219.322754 2208.220947,1217.651978 2208.218750,1231.823364 
	C2208.173096,1530.820923 2208.184082,1829.818359 2208.184082,2128.815918 
	C2208.184082,2132.455078 2208.184082,2136.094482 2208.184082,2139.845459 
	C2214.291748,2140.492188 2219.175293,2138.079102 2224.180908,2136.527588 
	C2255.818604,2126.720215 2285.291992,2112.143066 2313.835938,2095.550537 
	C2321.712402,2090.971924 2321.720215,2090.938232 2327.422607,2097.554443 
	C2346.135498,2119.265625 2364.843750,2140.980469 2383.532227,2162.712646 
	C2390.116455,2170.369629 2389.110107,2168.517822 2383.807373,2175.812988 
	C2356.583496,2213.265137 2319.808838,2237.371338 2276.398438,2251.929932 
	C2234.245605,2266.066162 2190.722168,2270.460938 2146.453857,2270.316650 
	C2035.737305,2269.956055 1929.781372,2246.918701 1827.880493,2204.302002 
	C1726.776489,2162.018311 1632.908447,2107.679688 1549.811646,2035.730713 
	C1509.531372,2000.854004 1473.924561,1961.786133 1446.730835,1915.632812 
	C1416.964355,1865.113159 1400.940674,1810.932983 1404.055054,1751.828003 
	C1405.723145,1720.169556 1414.045166,1690.173950 1427.296387,1661.497070 
	C1448.409546,1615.805664 1479.129150,1577.055298 1514.585571,1541.848389 
	C1570.772705,1486.056763 1634.803955,1440.804321 1703.505981,1401.860718 
	C1792.839355,1351.222168 1886.995361,1312.509766 1986.604126,1287.303833 
	C2002.725342,1283.224365 2018.999146,1279.744751 2035.214600,1276.041748 
	C2042.667603,1274.339844 2042.784546,1274.399658 2042.822632,1267.183716 
	C2042.896484,1253.184204 2042.740723,1239.182861 2042.903442,1225.184937 
	C2042.950806,1221.108032 2041.949341,1218.820190 2037.380493,1219.265747 
	C2035.069458,1219.491089 2032.717773,1219.297485 2030.384521,1219.297485 
	C1738.386963,1219.297119 1446.389404,1219.296997 1154.391846,1219.297607 
	C1141.941528,1219.297607 1141.940552,1219.300659 1141.940552,1232.153809 
	C1141.940430,1524.817993 1141.940308,1817.482300 1141.940308,2110.146484 
	C1141.940308,2113.786621 1141.940430,2117.426514 1141.940430,2122.269043 
	C1190.758179,2111.619141 1235.662354,2093.781494 1276.720215,2065.619629 
	C1288.828857,2084.098145 1300.503784,2101.904297 1312.166870,2119.718018 
	C1317.639404,2128.076660 1322.860718,2136.613037 1328.645386,2144.748779 
	C1331.550293,2148.834473 1331.190186,2151.135010 1327.450684,2154.573242 
	C1305.769775,2174.507812 1282.220337,2191.815918 1256.624756,2206.361572 
	C1202.691895,2237.010742 1144.391968,2254.511719 1083.441162,2264.241455 
	C1009.271240,2276.081299 934.816101,2276.379639 860.150635,2270.610352 
	C735.773499,2260.999268 617.413452,2228.203613 503.026154,2179.306641 
	C401.810791,2136.040283 311.757141,2075.870605 230.465317,2002.128662 
	C168.517059,1945.933716 113.845573,1883.234985 64.677994,1815.661743 
	C63.527744,1814.080933 61.927246,1812.692871 61.842419,1809.444458 
	C72.222855,1808.379395 82.707741,1807.190063 93.214577,1806.244629 
	C140.992844,1801.946167 188.652710,1796.607300 236.246017,1790.594971 
	C281.844177,1784.834717 327.316895,1778.269775 372.515533,1769.949341 
	C421.296204,1760.969482 469.835388,1750.817017 516.595093,1733.843750 
	C559.058411,1718.429932 599.415161,1698.947021 634.105896,1669.326660 
	C680.312500,1629.873657 705.846619,1580.156982 708.459290,1519.065430 
	C709.157532,1502.738525 709.606567,1486.444214 707.734985,1469.386963 
	C703.794983,1471.511597 703.329407,1475.346558 701.738098,1478.308594 
	C687.217957,1505.335938 672.135986,1532.031494 651.249634,1554.806885 
	C611.686340,1597.947876 563.234192,1624.246582 504.639709,1630.367188 
	C435.167816,1637.623901 368.921295,1627.023560 308.530243,1590.573608 
	C244.501541,1551.927856 199.993500,1497.033569 177.559067,1425.218262 
	C159.216187,1366.500488 166.080917,1310.124512 194.927017,1256.151733 
	C199.789322,1247.054077 204.871674,1238.069092 210.049744,1229.146606 
	C213.488968,1223.220459 213.697113,1223.227295 219.722946,1226.866821 
	C250.783401,1245.626709 281.815582,1264.433594 312.857422,1283.224487 
	C317.413269,1285.982178 321.891022,1288.881348 326.550415,1291.451416 
	C329.718872,1293.198975 331.168640,1295.151611 328.953186,1298.560791 
	C328.594482,1299.112793 328.400146,1299.769043 328.101807,1300.363037 
	C310.030548,1336.339600 314.630951,1372.023560 329.843750,1407.387573 
	C337.131165,1424.327881 347.055237,1439.724243 359.813568,1453.128418 
	C390.830048,1485.714966 429.416840,1497.264771 473.293488,1493.006104 
	C508.717285,1489.567871 534.708801,1470.999756 553.074341,1441.131226 
	C568.851990,1415.471558 576.963013,1387.055420 581.985291,1357.686890 
	C589.828125,1311.824951 591.565857,1265.649292 588.652954,1219.225586 
	C587.256104,1196.964478 586.678894,1174.651855 585.754883,1152.936768 
	C587.612671,1151.281494 588.859802,1151.718506 590.004578,1152.347656 
	C657.578918,1189.481323 720.148804,1233.235107 771.779846,1291.177490 
	C819.932495,1345.216309 853.272827,1406.939697 866.785034,1478.560913 
	C873.550293,1514.420044 876.700256,1550.556030 871.216431,1586.901123 
	C864.799622,1629.429565 846.419250,1666.735840 820.069092,1700.315308 
	C791.812805,1736.323975 757.669128,1766.052368 719.751770,1791.282471 
	C633.173035,1848.891479 538.747253,1888.153442 436.985321,1909.513550 
	C411.241882,1914.917236 385.150269,1918.502686 358.871094,1920.430176 
	C354.927887,1920.719482 351.005920,1921.298462 345.017639,1921.976196 
	C354.773438,1930.005005 362.987701,1937.089355 371.533142,1943.748657 
	C486.565277,2033.391968 615.742676,2093.072998 757.770630,2125.113770 
	C809.812256,2136.854492 862.411255,2145.181885 915.951416,2146.220947 
	C935.992493,2146.609619 955.873718,2144.007324 975.864502,2143.733398 
	C979.705017,2143.680908 981.279358,2142.046631 981.132202,2138.302490 
	C981.014587,2135.307373 981.119507,2132.303467 981.119507,2129.303467 
	C981.120056,1793.972900 981.113647,1458.642456 981.140381,1123.311890 
	C981.141602,1108.123047 979.631287,1110.547729 993.722961,1110.530396 
	C1063.389038,1110.444824 1133.055054,1110.491455 1202.721191,1110.491455 
	C1565.713989,1110.491455 1928.706665,1110.491455 2291.699463,1110.491455 
	C2665.358643,1110.491455 3039.017578,1110.491455 3412.676758,1110.491577 
	C3425.698975,1110.491577 3425.595215,1110.512573 3428.084961,1123.297241 
	C3433.619629,1151.719360 3439.267334,1180.119507 3444.878906,1208.526489 
	C3445.072266,1209.505005 3445.433594,1210.451416 3445.609375,1211.432129 
	C3446.961670,1218.984497 3446.827148,1219.268921 3438.985840,1219.275269 
	C3386.652832,1219.317017 3334.320068,1219.296997 3281.987061,1219.297241 
	C3271.320557,1219.297363 3260.643311,1219.581299 3249.991699,1219.181519 
	C3244.570557,1218.977905 3242.834717,1220.980225 3243.442139,1226.033691 
	C3243.679199,1228.005127 3243.480225,1230.028931 3243.480225,1232.028931 
	C3243.480225,1530.693115 3243.476074,1829.357300 3243.520996,2128.021484 
	C3243.521484,2131.956055 3242.716309,2135.997314 3244.290283,2139.888184 
	C3248.883301,2140.662109 3252.850098,2138.493408 3256.895264,2137.247070 
	C3283.009277,2129.202393 3308.322510,2119.105225 3332.704590,2106.750244 
	C3336.620361,2104.766113 3339.337646,2104.237549 3342.988770,2107.980957 
	C3363.235840,2128.738037 3383.843262,2149.143799 3404.304199,2169.692627 
	C3405.223145,2170.615479 3405.918457,2171.760498 3406.962891,2173.120850 
	C3387.076904,2189.204346 3366.145508,2203.354004 3344.232422,2216.051025 
	C3297.605713,2243.067871 3247.649902,2260.453613 3194.166504,2267.498047 
	C3167.289062,2271.038086 3140.270996,2270.800293 3113.297852,2269.662109 
	C3050.118896,2266.995605 2988.269287,2256.222900 2927.762695,2237.838867 
	C2856.367676,2216.146484 2789.311279,2184.850098 2724.894043,2146.080566 
	C2722.346191,2144.547363 2720.068848,2144.130371 2717.988281,2143.246582 
	C2717.306396,2142.956787 2716.928711,2142.061035 2716.013184,2142.273193 
	C2716.677734,2142.993408 2717.198975,2143.804932 2717.645020,2145.370361 
z"/>
<path fill="#B7C6C6" opacity="1.000000" stroke="none" 
	d="
M2718.534668,2145.949219 
	C2713.751221,2144.060303 2711.273193,2140.548096 2707.543213,2136.246094 
	C2714.528809,2137.838867 2718.625732,2142.113770 2723.906738,2145.275391 
	C2722.611572,2145.867676 2720.980957,2145.868896 2718.534668,2145.949219 
z"/>
<path fill="#FFFFFF" opacity="1.000000" stroke="none" 
	d="
M2741.498047,1577.463135 
	C2800.420654,1533.435059 2863.261719,1497.475708 2929.331543,1467.000366 
	C2974.952637,1445.957275 3021.492676,1427.236084 3069.168457,1411.363281 
	C3070.393066,1410.955688 3071.617188,1410.546875 3073.676025,1409.860718 
	C3073.676025,1653.405396 3073.676025,1896.311768 3073.676025,2139.510986 
	C3031.243408,2135.934082 2990.459961,2126.802979 2950.608643,2113.393311 
	C2881.183594,2090.032471 2818.507080,2054.092285 2759.799805,2010.757080 
	C2725.685303,1985.575195 2693.230713,1958.523071 2664.687500,1927.040649 
	C2644.703857,1904.999146 2627.209473,1881.220337 2613.751709,1854.527954 
	C2586.441895,1800.362061 2589.404541,1748.207764 2622.937988,1697.582764 
	C2648.410889,1659.127197 2680.662109,1627.067871 2715.844971,1597.711670 
	C2724.023926,1590.886963 2732.565918,1584.497314 2741.498047,1577.463135 
z"/>
<path fill="#FFFFFF" opacity="1.000000" stroke="none" 
	d="
M2007.019775,1424.892578 
	C2018.965698,1421.595703 2029.832275,1417.320435 2041.605103,1415.340576 
	C2043.733521,1419.281128 2042.800049,1423.307373 2042.801147,1427.128296 
	C2042.853271,1626.080444 2042.847046,1825.032715 2042.847046,2023.984863 
	C2042.847046,2058.643066 2042.847046,2093.301514 2042.846680,2127.959717 
	C2042.846680,2129.959229 2042.737183,2131.965820 2042.864136,2133.957031 
	C2043.139648,2138.280029 2041.670044,2139.585938 2037.033691,2139.020752 
	C2017.520752,2136.642578 1998.163574,2133.506104 1979.030029,2128.975098 
	C1913.630127,2113.489258 1853.138794,2086.430176 1796.403198,2050.820068 
	C1743.825562,2017.819458 1693.787598,1981.369141 1648.907471,1938.264038 
	C1622.357666,1912.764160 1598.570923,1885.021240 1581.584229,1852.011597 
	C1568.851807,1827.269165 1561.705322,1801.277344 1563.833984,1773.189941 
	C1565.873901,1746.273193 1576.160400,1722.272461 1590.180176,1699.692383 
	C1609.524902,1668.535767 1634.166870,1641.805786 1662.048218,1618.348145 
	C1764.491333,1532.158447 1878.310669,1466.013306 2007.019775,1424.892578 
z"/>
</svg>