<?xml version="1.0" standalone="no"?>
<!DOCTYPE svg PUBLIC "-//W3C//DTD SVG 20010904//EN"
 "http://www.w3.org/TR/2001/REC-SVG-20010904/DTD/svg10.dtd">
<svg version="1.0" xmlns="http://www.w3.org/2000/svg"
 width="167.000000pt" height="167.000000pt" viewBox="0 0 167.000000 167.000000"
 preserveAspectRatio="xMidYMid meet">

<g transform="translate(0.000000,167.000000) scale(0.100000,-0.100000)"
fill="#000000" stroke="none">
<path d="M1010 896 c0 -384 -1 -395 -20 -401 -33 -11 -201 24 -280 58 -73 32
-180 96 -180 108 0 3 28 11 62 17 72 13 191 68 246 112 139 111 107 301 -72
432 -21 15 -43 28 -48 28 -4 0 -8 -26 -8 -57 -1 -78 -17 -143 -42 -170 -23
-25 -84 -31 -119 -13 -28 15 -51 67 -47 107 2 31 -1 37 -36 58 -44 27 -53 25
-68 -13 -38 -98 32 -228 141 -261 104 -31 189 -2 242 84 l19 30 0 -35 c0 -76
-62 -141 -164 -173 -60 -19 -226 -47 -278 -47 -20 0 -39 -4 -42 -9 -3 -5 13
-32 35 -60 99 -125 273 -231 444 -272 74 -17 112 -20 210 -17 105 4 128 8 182
32 34 16 69 36 77 45 14 15 13 20 -7 45 -23 28 -24 28 -55 12 -17 -9 -40 -16
-52 -16 -20 0 -20 4 -20 345 l0 345 70 0 70 0 0 40 0 40 -130 0 -130 0 0 -394z"/>
</g>
</svg>
